<?xml version="1.0" encoding="UTF-8"?>
<!DOCTYPE svg
PUBLIC "-//W3C//DTD SVG 1.1//EN"
       "http://www.w3.org/Graphics/SVG/1.1/DTD/svg11.dtd">
<svg style="width: 100%;height: auto;" viewBox="17 -5 1294 1226" width="1277px" height="1231px" xmlns="http://www.w3.org/2000/svg" version="1.1">
   <line x1="192" y1="40" x2="202" y2="40" style="stroke:#cb0;stroke-width:1;"/>
   <line x1="275" y1="46" x2="285" y2="46" style="stroke:#cb0;stroke-width:1;"/>
   <line x1="202" y1="40" x2="275" y2="46" style="stroke:#cb0;stroke-width:1;"/>
   <line x1="199.5" y1="40" x2="195.96446609407" y2="43.535533905933" style="stroke:#cb0;stroke-width:2;"/>
   <line x1="199.5" y1="40" x2="195.96446609407" y2="36.464466094067" style="stroke:#cb0;stroke-width:2;"/>
   <line x1="280" y1="46" x2="276.46446609407" y2="49.535533905933" style="stroke:#cb0;stroke-width:2;"/>
   <line x1="280" y1="46" x2="276.46446609407" y2="42.464466094067" style="stroke:#cb0;stroke-width:2;"/>
   <line x1="704" y1="224" x2="694" y2="224" style="stroke:#c00;stroke-width:1;"/>
   <line x1="580" y1="46" x2="570" y2="46" style="stroke:#c00;stroke-width:1;"/>
   <line x1="694" y1="224" x2="580" y2="46" style="stroke:#c00;stroke-width:1;"/>
   <line x1="696.5" y1="224" x2="700.03553390593" y2="227.53553390593" style="stroke:#c00;stroke-width:2;"/>
   <line x1="696.5" y1="224" x2="700.03553390593" y2="220.46446609407" style="stroke:#c00;stroke-width:2;"/>
   <line x1="575" y1="46" x2="578.53553390593" y2="49.535533905933" style="stroke:#c00;stroke-width:2;"/>
   <line x1="575" y1="46" x2="578.53553390593" y2="42.464466094067" style="stroke:#c00;stroke-width:2;"/>
   <line x1="750" y1="43" x2="740" y2="43" style="stroke:#0bf;stroke-width:1;"/>
   <line x1="580" y1="46" x2="570" y2="46" style="stroke:#0bf;stroke-width:1;"/>
   <line x1="740" y1="43" x2="580" y2="46" style="stroke:#0bf;stroke-width:1;"/>
   <line x1="742.5" y1="43" x2="746.03553390593" y2="46.535533905933" style="stroke:#0bf;stroke-width:2;"/>
   <line x1="742.5" y1="43" x2="746.03553390593" y2="39.464466094067" style="stroke:#0bf;stroke-width:2;"/>
   <line x1="575" y1="46" x2="578.53553390593" y2="49.535533905933" style="stroke:#0bf;stroke-width:2;"/>
   <line x1="575" y1="46" x2="578.53553390593" y2="42.464466094067" style="stroke:#0bf;stroke-width:2;"/>
   <line x1="188" y1="288" x2="198" y2="288" style="stroke:#cb0;stroke-width:1;"/>
   <line x1="275" y1="46" x2="285" y2="46" style="stroke:#cb0;stroke-width:1;"/>
   <line x1="198" y1="288" x2="275" y2="46" style="stroke:#cb0;stroke-width:1;"/>
   <line x1="195.5" y1="288" x2="191.96446609407" y2="291.53553390593" style="stroke:#cb0;stroke-width:2;"/>
   <line x1="195.5" y1="288" x2="191.96446609407" y2="284.46446609407" style="stroke:#cb0;stroke-width:2;"/>
   <line x1="280" y1="46" x2="276.46446609407" y2="49.535533905933" style="stroke:#cb0;stroke-width:2;"/>
   <line x1="280" y1="46" x2="276.46446609407" y2="42.464466094067" style="stroke:#cb0;stroke-width:2;"/>
   <line x1="32" y1="636" x2="22" y2="636" style="stroke:#b0b;stroke-width:1;"/>
   <line x1="35" y1="468" x2="45" y2="468" style="stroke:#b0b;stroke-width:1;"/>
   <line x1="22" y1="636" x2="35" y2="468" style="stroke:#b0b;stroke-width:1;"/>
   <line x1="24.5" y1="636" x2="28.035533905933" y2="639.53553390593" style="stroke:#b0b;stroke-width:2;"/>
   <line x1="24.5" y1="636" x2="28.035533905933" y2="632.46446609407" style="stroke:#b0b;stroke-width:2;"/>
   <line x1="40" y1="468" x2="36.464466094067" y2="471.53553390593" style="stroke:#b0b;stroke-width:2;"/>
   <line x1="40" y1="468" x2="36.464466094067" y2="464.46446609407" style="stroke:#b0b;stroke-width:2;"/>
   <line x1="33" y1="661" x2="23" y2="661" style="stroke:#0b0;stroke-width:1;"/>
   <line x1="35" y1="468" x2="45" y2="468" style="stroke:#0b0;stroke-width:1;"/>
   <line x1="23" y1="661" x2="35" y2="468" style="stroke:#0b0;stroke-width:1;"/>
   <line x1="25.5" y1="661" x2="29.035533905933" y2="664.53553390593" style="stroke:#0b0;stroke-width:2;"/>
   <line x1="25.5" y1="661" x2="29.035533905933" y2="657.46446609407" style="stroke:#0b0;stroke-width:2;"/>
   <line x1="40" y1="468" x2="36.464466094067" y2="471.53553390593" style="stroke:#0b0;stroke-width:2;"/>
   <line x1="40" y1="468" x2="36.464466094067" y2="464.46446609407" style="stroke:#0b0;stroke-width:2;"/>
   <rect width="331" height="20" x="626" y="376" style="fill:#007;stroke:black;"/>
   <text width="331" height="20" x="631" y="390" style="fill:#fff;" font-family="Arial" font-size="16px"> c10003_manifestation</text>
   <rect width="331" height="20" x="626" y="396" style="fill:#aea;stroke:black;"/>
   <text width="331" height="20" x="631" y="410" style="fill:black;" font-family="Arial" font-size="16px">id_efbrer</text>
   <rect width="331" height="20" x="626" y="416" style="fill:none;stroke:black;"/>
   <text width="331" height="20" x="631" y="430" style="fill:black;" font-family="Arial" font-size="16px">P3002_has_form_of_work</text>
   <rect width="331" height="20" x="626" y="436" style="fill:none;stroke:black;"/>
   <text width="331" height="20" x="631" y="450" style="fill:black;" font-family="Arial" font-size="16px">P3055_has_date_of_publication_or_distribution</text>
   <rect width="331" height="20" x="626" y="456" style="fill:none;stroke:black;"/>
   <text width="331" height="20" x="631" y="470" style="fill:black;" font-family="Arial" font-size="16px">p2017_is_produced_by</text>
   <rect width="331" height="20" x="626" y="476" style="fill:none;stroke:black;"/>
   <text width="331" height="20" x="631" y="490" style="fill:black;" font-family="Arial" font-size="16px">p3020_has_title_of_the_manifestation</text>
   <rect width="331" height="20" x="626" y="496" style="fill:none;stroke:black;"/>
   <text width="331" height="20" x="631" y="510" style="fill:black;" font-family="Arial" font-size="16px">p3056_has_publisher_or_distributor</text>
   <rect width="331" height="20" x="626" y="516" style="fill:none;stroke:black;"/>
   <text width="331" height="20" x="631" y="530" style="fill:black;" font-family="Arial" font-size="16px">p3057_has_place_of_publication_or_distribution</text>
   <rect width="331" height="20" x="626" y="536" style="fill:none;stroke:black;"/>
   <text width="331" height="20" x="631" y="550" style="fill:black;" font-family="Arial" font-size="16px">p3096_has_access_address</text>
   <rect width="331" height="20" x="626" y="556" style="fill:none;stroke:black;"/>
   <text width="331" height="20" x="631" y="570" style="fill:black;" font-family="Arial" font-size="16px">collection</text>
   <rect width="331" height="20" x="626" y="576" style="fill:none;stroke:black;"/>
   <text width="331" height="20" x="631" y="590" style="fill:black;" font-family="Arial" font-size="16px">pages</text>
   <rect width="331" height="20" x="626" y="596" style="fill:none;stroke:black;"/>
   <text width="331" height="20" x="631" y="610" style="fill:black;" font-family="Arial" font-size="16px">sedexp</text>
   <rect width="331" height="20" x="626" y="616" style="fill:none;stroke:black;"/>
   <text width="331" height="20" x="631" y="630" style="fill:black;" font-family="Arial" font-size="16px">volume</text>
   <rect width="331" height="20" x="626" y="636" style="fill:none;stroke:black;"/>
   <text width="331" height="20" x="631" y="650" style="fill:black;" font-family="Arial" font-size="16px">created_at</text>
   <rect width="331" height="20" x="626" y="656" style="fill:none;stroke:black;"/>
   <text width="331" height="20" x="631" y="670" style="fill:black;" font-family="Arial" font-size="16px">updated_at</text>
   <rect width="285" height="20" x="285" y="16" style="fill:#007;stroke:black;"/>
   <text width="285" height="20" x="290" y="30" style="fill:#fff;" font-family="Arial" font-size="16px"> e22_man_made_object</text>
   <rect width="285" height="20" x="285" y="36" style="fill:#aea;stroke:black;"/>
   <text width="285" height="20" x="290" y="50" style="fill:black;" font-family="Arial" font-size="16px">id_cidoc_crm</text>
   <rect width="285" height="20" x="285" y="56" style="fill:none;stroke:black;"/>
   <text width="285" height="20" x="290" y="70" style="fill:black;" font-family="Arial" font-size="16px">has_school</text>
   <rect width="285" height="20" x="285" y="76" style="fill:none;stroke:black;"/>
   <text width="285" height="20" x="290" y="90" style="fill:black;" font-family="Arial" font-size="16px">p108i_E12_p126_employed_medium</text>
   <rect width="285" height="20" x="285" y="96" style="fill:none;stroke:black;"/>
   <text width="285" height="20" x="290" y="110" style="fill:black;" font-family="Arial" font-size="16px">p108i_E12_p126_employed_support</text>
   <rect width="285" height="20" x="285" y="116" style="fill:none;stroke:black;"/>
   <text width="285" height="20" x="290" y="130" style="fill:black;" font-family="Arial" font-size="16px">p108i_E12_p32_used_general_technique</text>
   <rect width="285" height="20" x="285" y="136" style="fill:none;stroke:black;"/>
   <text width="285" height="20" x="290" y="150" style="fill:black;" font-family="Arial" font-size="16px">p14_main_carried_out_by</text>
   <rect width="285" height="20" x="285" y="156" style="fill:none;stroke:black;"/>
   <text width="285" height="20" x="290" y="170" style="fill:black;" font-family="Arial" font-size="16px">p43_E54_has_dimension</text>
   <rect width="285" height="20" x="285" y="176" style="fill:none;stroke:black;"/>
   <text width="285" height="20" x="290" y="190" style="fill:black;" font-family="Arial" font-size="16px">p65_E36_p138_represents_concept</text>
   <rect width="285" height="20" x="285" y="196" style="fill:none;stroke:black;"/>
   <text width="285" height="20" x="290" y="210" style="fill:black;" font-family="Arial" font-size="16px">p65_E36_p138_represents_flora</text>
   <rect width="285" height="20" x="285" y="216" style="fill:none;stroke:black;"/>
   <text width="285" height="20" x="290" y="230" style="fill:black;" font-family="Arial" font-size="16px">p65_E36_p138_represents_object</text>
   <rect width="285" height="20" x="285" y="236" style="fill:none;stroke:black;"/>
   <text width="285" height="20" x="290" y="250" style="fill:black;" font-family="Arial" font-size="16px">p65_E36_p138_represents_person</text>
   <rect width="285" height="20" x="285" y="256" style="fill:none;stroke:black;"/>
   <text width="285" height="20" x="290" y="270" style="fill:black;" font-family="Arial" font-size="16px">p65_E36_p138_represents_place</text>
   <rect width="285" height="20" x="285" y="276" style="fill:none;stroke:black;"/>
   <text width="285" height="20" x="290" y="290" style="fill:black;" font-family="Arial" font-size="16px">p65_E36_p138_represents_wildlife</text>
   <rect width="285" height="20" x="285" y="296" style="fill:none;stroke:black;"/>
   <text width="285" height="20" x="290" y="310" style="fill:black;" font-family="Arial" font-size="16px">i_artwork_encyclopediaEntry</text>
   <rect width="285" height="20" x="285" y="316" style="fill:none;stroke:black;"/>
   <text width="285" height="20" x="290" y="330" style="fill:black;" font-family="Arial" font-size="16px">i_artwork_exhibitionactivity</text>
   <rect width="285" height="20" x="285" y="336" style="fill:none;stroke:black;"/>
   <text width="285" height="20" x="290" y="350" style="fill:black;" font-family="Arial" font-size="16px">i_artwork_multimediaresource</text>
   <rect width="285" height="20" x="285" y="356" style="fill:none;stroke:black;"/>
   <text width="285" height="20" x="290" y="370" style="fill:black;" font-family="Arial" font-size="16px">i_artwork_product</text>
   <rect width="285" height="20" x="285" y="376" style="fill:none;stroke:black;"/>
   <text width="285" height="20" x="290" y="390" style="fill:black;" font-family="Arial" font-size="16px">i_audioguide_artwork</text>
   <rect width="285" height="20" x="285" y="396" style="fill:none;stroke:black;"/>
   <text width="285" height="20" x="290" y="410" style="fill:black;" font-family="Arial" font-size="16px">i_author_artwork</text>
   <rect width="285" height="20" x="285" y="416" style="fill:none;stroke:black;"/>
   <text width="285" height="20" x="290" y="430" style="fill:black;" font-family="Arial" font-size="16px">i_signguide_artwork</text>
   <rect width="285" height="20" x="285" y="436" style="fill:none;stroke:black;"/>
   <text width="285" height="20" x="290" y="450" style="fill:black;" font-family="Arial" font-size="16px">relatedExhibition</text>
   <rect width="285" height="20" x="285" y="456" style="fill:none;stroke:black;"/>
   <text width="285" height="20" x="290" y="470" style="fill:black;" font-family="Arial" font-size="16px">p12i_was_present_at_exhibition</text>
   <rect width="285" height="20" x="285" y="476" style="fill:none;stroke:black;"/>
   <text width="285" height="20" x="290" y="490" style="fill:black;" font-family="Arial" font-size="16px">p130i_features_are_also_found_on</text>
   <rect width="285" height="20" x="285" y="496" style="fill:none;stroke:black;"/>
   <text width="285" height="20" x="290" y="510" style="fill:black;" font-family="Arial" font-size="16px">p14_carried_out_by</text>
   <rect width="285" height="20" x="285" y="516" style="fill:none;stroke:black;"/>
   <text width="285" height="20" x="290" y="530" style="fill:black;" font-family="Arial" font-size="16px">p1_is_identified_by</text>
   <rect width="285" height="20" x="285" y="536" style="fill:none;stroke:black;"/>
   <text width="285" height="20" x="290" y="550" style="fill:black;" font-family="Arial" font-size="16px">p2_has_type</text>
   <rect width="285" height="20" x="285" y="556" style="fill:none;stroke:black;"/>
   <text width="285" height="20" x="290" y="570" style="fill:black;" font-family="Arial" font-size="16px">p48_has_preferred_identifier</text>
   <rect width="285" height="20" x="285" y="576" style="fill:none;stroke:black;"/>
   <text width="285" height="20" x="290" y="590" style="fill:black;" font-family="Arial" font-size="16px">p65_shows_visual_item</text>
   <rect width="285" height="20" x="285" y="596" style="fill:none;stroke:black;"/>
   <text width="285" height="20" x="290" y="610" style="fill:black;" font-family="Arial" font-size="16px">p70i_is_documented_in</text>
   <rect width="285" height="20" x="285" y="616" style="fill:none;stroke:black;"/>
   <text width="285" height="20" x="290" y="630" style="fill:black;" font-family="Arial" font-size="16px">p7_took_place_at</text>
   <rect width="285" height="20" x="285" y="636" style="fill:none;stroke:black;"/>
   <text width="285" height="20" x="290" y="650" style="fill:black;" font-family="Arial" font-size="16px">Title</text>
   <rect width="285" height="20" x="285" y="656" style="fill:none;stroke:black;"/>
   <text width="285" height="20" x="290" y="670" style="fill:black;" font-family="Arial" font-size="16px">p3_has_note</text>
   <rect width="285" height="20" x="285" y="676" style="fill:none;stroke:black;"/>
   <text width="285" height="20" x="290" y="690" style="fill:black;" font-family="Arial" font-size="16px">p46i_E78_p102_forms_part_of</text>
   <rect width="285" height="20" x="285" y="696" style="fill:none;stroke:black;"/>
   <text width="285" height="20" x="290" y="710" style="fill:black;" font-family="Arial" font-size="16px">p55_has_current_location_id</text>
   <rect width="285" height="20" x="285" y="716" style="fill:none;stroke:black;"/>
   <text width="285" height="20" x="290" y="730" style="fill:black;" font-family="Arial" font-size="16px">p55_has_current_location_type</text>
   <rect width="285" height="20" x="285" y="736" style="fill:none;stroke:black;"/>
   <text width="285" height="20" x="290" y="750" style="fill:black;" font-family="Arial" font-size="16px">p62_E52_p79_has_time-span_beginning</text>
   <rect width="285" height="20" x="285" y="756" style="fill:none;stroke:black;"/>
   <text width="285" height="20" x="290" y="770" style="fill:black;" font-family="Arial" font-size="16px">p62_E52_p80_has_time-span_end</text>
   <rect width="285" height="20" x="285" y="776" style="fill:none;stroke:black;"/>
   <text width="285" height="20" x="290" y="790" style="fill:black;" font-family="Arial" font-size="16px">p65_E36_shows_visual_item</text>
   <rect width="285" height="20" x="285" y="796" style="fill:none;stroke:black;"/>
   <text width="285" height="20" x="290" y="810" style="fill:black;" font-family="Arial" font-size="16px">textDate</text>
   <rect width="285" height="20" x="285" y="816" style="fill:none;stroke:black;"/>
   <text width="285" height="20" x="290" y="830" style="fill:black;" font-family="Arial" font-size="16px">departmentId</text>
   <rect width="285" height="20" x="285" y="836" style="fill:none;stroke:black;"/>
   <text width="285" height="20" x="290" y="850" style="fill:black;" font-family="Arial" font-size="16px">departmentName</text>
   <rect width="285" height="20" x="285" y="856" style="fill:none;stroke:black;"/>
   <text width="285" height="20" x="290" y="870" style="fill:black;" font-family="Arial" font-size="16px">description</text>
   <rect width="285" height="20" x="285" y="876" style="fill:none;stroke:black;"/>
   <text width="285" height="20" x="290" y="890" style="fill:black;" font-family="Arial" font-size="16px">inventoryNumber</text>
   <rect width="285" height="20" x="285" y="896" style="fill:none;stroke:black;"/>
   <text width="285" height="20" x="290" y="910" style="fill:black;" font-family="Arial" font-size="16px">main_image</text>
   <rect width="285" height="20" x="285" y="916" style="fill:none;stroke:black;"/>
   <text width="285" height="20" x="290" y="930" style="fill:black;" font-family="Arial" font-size="16px">prominent</text>
   <rect width="285" height="20" x="285" y="936" style="fill:none;stroke:black;"/>
   <text width="285" height="20" x="290" y="950" style="fill:black;" font-family="Arial" font-size="16px">publicationDate</text>
   <rect width="285" height="20" x="285" y="956" style="fill:none;stroke:black;"/>
   <text width="285" height="20" x="290" y="970" style="fill:black;" font-family="Arial" font-size="16px">relevance</text>
   <rect width="285" height="20" x="285" y="976" style="fill:none;stroke:black;"/>
   <text width="285" height="20" x="290" y="990" style="fill:black;" font-family="Arial" font-size="16px">updateDate</text>
   <rect width="285" height="20" x="285" y="996" style="fill:none;stroke:black;"/>
   <text width="285" height="20" x="290" y="1010" style="fill:black;" font-family="Arial" font-size="16px">dc:language</text>
   <rect width="285" height="20" x="285" y="1016" style="fill:none;stroke:black;"/>
   <text width="285" height="20" x="290" y="1030" style="fill:black;" font-family="Arial" font-size="16px">Tag</text>
   <rect width="285" height="20" x="285" y="1036" style="fill:none;stroke:black;"/>
   <text width="285" height="20" x="290" y="1050" style="fill:black;" font-family="Arial" font-size="16px">p27_moved_from</text>
   <rect width="285" height="20" x="285" y="1056" style="fill:none;stroke:black;"/>
   <text width="285" height="20" x="290" y="1070" style="fill:black;" font-family="Arial" font-size="16px">p55_has_current_location</text>
   <rect width="285" height="20" x="285" y="1076" style="fill:none;stroke:black;"/>
   <text width="285" height="20" x="290" y="1090" style="fill:black;" font-family="Arial" font-size="16px">geo:lat</text>
   <rect width="285" height="20" x="285" y="1096" style="fill:none;stroke:black;"/>
   <text width="285" height="20" x="290" y="1110" style="fill:black;" font-family="Arial" font-size="16px">geo:long</text>
   <rect width="285" height="20" x="285" y="1116" style="fill:none;stroke:black;"/>
   <text width="285" height="20" x="290" y="1130" style="fill:black;" font-family="Arial" font-size="16px">created_at</text>
   <rect width="285" height="20" x="285" y="1136" style="fill:none;stroke:black;"/>
   <text width="285" height="20" x="290" y="1150" style="fill:black;" font-family="Arial" font-size="16px">updated_at</text>
   <rect width="154" height="20" x="38" y="10" style="fill:#007;stroke:black;"/>
   <text width="154" height="20" x="43" y="24" style="fill:#fff;" font-family="Arial" font-size="16px"> e36_visual_item</text>
   <rect width="154" height="20" x="38" y="30" style="fill:#aea;stroke:black;"/>
   <text width="154" height="20" x="43" y="44" style="fill:black;" font-family="Arial" font-size="16px">id_cidoc_crm</text>
   <rect width="154" height="20" x="38" y="50" style="fill:none;stroke:black;"/>
   <text width="154" height="20" x="43" y="64" style="fill:black;" font-family="Arial" font-size="16px">p1_is_identified_by</text>
   <rect width="154" height="20" x="38" y="70" style="fill:none;stroke:black;"/>
   <text width="154" height="20" x="43" y="84" style="fill:black;" font-family="Arial" font-size="16px">p2_has_type</text>
   <rect width="154" height="20" x="38" y="90" style="fill:none;stroke:black;"/>
   <text width="154" height="20" x="43" y="104" style="fill:black;" font-family="Arial" font-size="16px">p3_has_note Domain</text>
   <rect width="154" height="20" x="38" y="110" style="fill:none;stroke:black;"/>
   <text width="154" height="20" x="43" y="124" style="fill:black;" font-family="Arial" font-size="16px">imageHeight</text>
   <rect width="154" height="20" x="38" y="130" style="fill:none;stroke:black;"/>
   <text width="154" height="20" x="43" y="144" style="fill:black;" font-family="Arial" font-size="16px">imageLightSource</text>
   <rect width="154" height="20" x="38" y="150" style="fill:none;stroke:black;"/>
   <text width="154" height="20" x="43" y="164" style="fill:black;" font-family="Arial" font-size="16px">imageView</text>
   <rect width="154" height="20" x="38" y="170" style="fill:none;stroke:black;"/>
   <text width="154" height="20" x="43" y="184" style="fill:black;" font-family="Arial" font-size="16px">imageWidth</text>
   <rect width="154" height="20" x="38" y="190" style="fill:none;stroke:black;"/>
   <text width="154" height="20" x="43" y="204" style="fill:black;" font-family="Arial" font-size="16px">created_at</text>
   <rect width="154" height="20" x="38" y="210" style="fill:none;stroke:black;"/>
   <text width="154" height="20" x="43" y="224" style="fill:black;" font-family="Arial" font-size="16px">updated_at</text>
   <rect width="263" height="20" x="1016" y="18" style="fill:#007;stroke:black;"/>
   <text width="263" height="20" x="1021" y="32" style="fill:#fff;" font-family="Arial" font-size="16px"> e39_actor_e39_authorship</text>
   <rect width="263" height="20" x="1016" y="38" style="fill:#aea;stroke:black;"/>
   <text width="263" height="20" x="1021" y="52" style="fill:black;" font-family="Arial" font-size="16px">id_e_cidoc</text>
   <rect width="263" height="20" x="1016" y="58" style="fill:none;stroke:black;"/>
   <text width="263" height="20" x="1021" y="72" style="fill:black;" font-family="Arial" font-size="16px">tagLabel</text>
   <rect width="263" height="20" x="1016" y="78" style="fill:none;stroke:black;"/>
   <text width="263" height="20" x="1021" y="92" style="fill:black;" font-family="Arial" font-size="16px">artWorkNumber</text>
   <rect width="263" height="20" x="1016" y="98" style="fill:none;stroke:black;"/>
   <text width="263" height="20" x="1021" y="112" style="fill:black;" font-family="Arial" font-size="16px">dc:language</text>
   <rect width="263" height="20" x="1016" y="118" style="fill:none;stroke:black;"/>
   <text width="263" height="20" x="1021" y="132" style="fill:black;" font-family="Arial" font-size="16px">identifier</text>
   <rect width="263" height="20" x="1016" y="138" style="fill:none;stroke:black;"/>
   <text width="263" height="20" x="1021" y="152" style="fill:black;" font-family="Arial" font-size="16px">p100i_E69_p4_death_date</text>
   <rect width="263" height="20" x="1016" y="158" style="fill:none;stroke:black;"/>
   <text width="263" height="20" x="1021" y="172" style="fill:black;" font-family="Arial" font-size="16px">p100i_E69_p4_death_year</text>
   <rect width="263" height="20" x="1016" y="178" style="fill:none;stroke:black;"/>
   <text width="263" height="20" x="1021" y="192" style="fill:black;" font-family="Arial" font-size="16px">p100i_E69_p7_death_place</text>
   <rect width="263" height="20" x="1016" y="198" style="fill:none;stroke:black;"/>
   <text width="263" height="20" x="1021" y="212" style="fill:black;" font-family="Arial" font-size="16px">p131_E82_p102_has_title</text>
   <rect width="263" height="20" x="1016" y="218" style="fill:none;stroke:black;"/>
   <text width="263" height="20" x="1021" y="232" style="fill:black;" font-family="Arial" font-size="16px">p131_E82_p139_has_alternative_form</text>
   <rect width="263" height="20" x="1016" y="238" style="fill:none;stroke:black;"/>
   <text width="263" height="20" x="1021" y="252" style="fill:black;" font-family="Arial" font-size="16px">p3_has_note</text>
   <rect width="263" height="20" x="1016" y="258" style="fill:none;stroke:black;"/>
   <text width="263" height="20" x="1021" y="272" style="fill:black;" font-family="Arial" font-size="16px">p4_has_time-span</text>
   <rect width="263" height="20" x="1016" y="278" style="fill:none;stroke:black;"/>
   <text width="263" height="20" x="1021" y="292" style="fill:black;" font-family="Arial" font-size="16px">p65_E36_shows_visual_item</text>
   <rect width="263" height="20" x="1016" y="298" style="fill:none;stroke:black;"/>
   <text width="263" height="20" x="1021" y="312" style="fill:black;" font-family="Arial" font-size="16px">p96_E67_p4_gave_birth_date</text>
   <rect width="263" height="20" x="1016" y="318" style="fill:none;stroke:black;"/>
   <text width="263" height="20" x="1021" y="332" style="fill:black;" font-family="Arial" font-size="16px">p96_E67_p4_gave_birth_year</text>
   <rect width="263" height="20" x="1016" y="338" style="fill:none;stroke:black;"/>
   <text width="263" height="20" x="1021" y="352" style="fill:black;" font-family="Arial" font-size="16px">p96_E67_p7_gave_birth_place</text>
   <rect width="263" height="20" x="1016" y="358" style="fill:none;stroke:black;"/>
   <text width="263" height="20" x="1021" y="372" style="fill:black;" font-family="Arial" font-size="16px">created_at</text>
   <rect width="263" height="20" x="1016" y="378" style="fill:none;stroke:black;"/>
   <text width="263" height="20" x="1021" y="392" style="fill:black;" font-family="Arial" font-size="16px">updated_at</text>
   <rect width="191" height="20" x="704" y="194" style="fill:#007;stroke:black;"/>
   <text width="191" height="20" x="709" y="208" style="fill:#fff;" font-family="Arial" font-size="16px"> e42_identifier</text>
   <rect width="191" height="20" x="704" y="214" style="fill:#aea;stroke:black;"/>
   <text width="191" height="20" x="709" y="228" style="fill:black;" font-family="Arial" font-size="16px">id_cidoc_crm</text>
   <rect width="191" height="20" x="704" y="234" style="fill:none;stroke:black;"/>
   <text width="191" height="20" x="709" y="248" style="fill:black;" font-family="Arial" font-size="16px">p3_has_note_id</text>
   <rect width="191" height="20" x="704" y="254" style="fill:none;stroke:black;"/>
   <text width="191" height="20" x="709" y="268" style="fill:black;" font-family="Arial" font-size="16px">p102_has_title</text>
   <rect width="191" height="20" x="704" y="274" style="fill:none;stroke:black;"/>
   <text width="191" height="20" x="709" y="288" style="fill:black;" font-family="Arial" font-size="16px">p139_has_alternative_form</text>
   <rect width="191" height="20" x="704" y="294" style="fill:none;stroke:black;"/>
   <text width="191" height="20" x="709" y="308" style="fill:black;" font-family="Arial" font-size="16px">p4_has_time-span</text>
   <rect width="191" height="20" x="704" y="314" style="fill:none;stroke:black;"/>
   <text width="191" height="20" x="709" y="328" style="fill:black;" font-family="Arial" font-size="16px">created_at</text>
   <rect width="191" height="20" x="704" y="334" style="fill:none;stroke:black;"/>
   <text width="191" height="20" x="709" y="348" style="fill:black;" font-family="Arial" font-size="16px">updated_at</text>
   <rect width="108" height="20" x="750" y="13" style="fill:#007;stroke:black;"/>
   <text width="108" height="20" x="755" y="27" style="fill:#fff;" font-family="Arial" font-size="16px"> e50_date</text>
   <rect width="108" height="20" x="750" y="33" style="fill:#aea;stroke:black;"/>
   <text width="108" height="20" x="755" y="47" style="fill:black;" font-family="Arial" font-size="16px">id_cidoc_crm</text>
   <rect width="108" height="20" x="750" y="53" style="fill:none;stroke:black;"/>
   <text width="108" height="20" x="755" y="67" style="fill:black;" font-family="Arial" font-size="16px">century</text>
   <rect width="108" height="20" x="750" y="73" style="fill:none;stroke:black;"/>
   <text width="108" height="20" x="755" y="87" style="fill:black;" font-family="Arial" font-size="16px">normDate</text>
   <rect width="108" height="20" x="750" y="93" style="fill:none;stroke:black;"/>
   <text width="108" height="20" x="755" y="107" style="fill:black;" font-family="Arial" font-size="16px">precisionDate</text>
   <rect width="108" height="20" x="750" y="113" style="fill:none;stroke:black;"/>
   <text width="108" height="20" x="755" y="127" style="fill:black;" font-family="Arial" font-size="16px">typeDate</text>
   <rect width="108" height="20" x="750" y="133" style="fill:none;stroke:black;"/>
   <text width="108" height="20" x="755" y="147" style="fill:black;" font-family="Arial" font-size="16px">created_at</text>
   <rect width="108" height="20" x="750" y="153" style="fill:none;stroke:black;"/>
   <text width="108" height="20" x="755" y="167" style="fill:black;" font-family="Arial" font-size="16px">updated_at</text>
   <rect width="144" height="20" x="44" y="258" style="fill:#007;stroke:black;"/>
   <text width="144" height="20" x="49" y="272" style="fill:#fff;" font-family="Arial" font-size="16px"> e54_dimension</text>
   <rect width="144" height="20" x="44" y="278" style="fill:#aea;stroke:black;"/>
   <text width="144" height="20" x="49" y="292" style="fill:black;" font-family="Arial" font-size="16px">id_cidoc_crm</text>
   <rect width="144" height="20" x="44" y="298" style="fill:none;stroke:black;"/>
   <text width="144" height="20" x="49" y="312" style="fill:black;" font-family="Arial" font-size="16px">p2_E55_has_type</text>
   <rect width="144" height="20" x="44" y="318" style="fill:none;stroke:black;"/>
   <text width="144" height="20" x="49" y="332" style="fill:black;" font-family="Arial" font-size="16px">p90_E60_has_value</text>
   <rect width="144" height="20" x="44" y="338" style="fill:none;stroke:black;"/>
   <text width="144" height="20" x="49" y="352" style="fill:black;" font-family="Arial" font-size="16px">p91_E58_has_unit</text>
   <rect width="144" height="20" x="44" y="358" style="fill:none;stroke:black;"/>
   <text width="144" height="20" x="49" y="372" style="fill:black;" font-family="Arial" font-size="16px">conversion_factor</text>
   <rect width="144" height="20" x="44" y="378" style="fill:none;stroke:black;"/>
   <text width="144" height="20" x="49" y="392" style="fill:black;" font-family="Arial" font-size="16px">created_at</text>
   <rect width="144" height="20" x="44" y="398" style="fill:none;stroke:black;"/>
   <text width="144" height="20" x="49" y="412" style="fill:black;" font-family="Arial" font-size="16px">updated_at</text>
   <rect width="83" height="20" x="1153" y="486" style="fill:#007;stroke:black;"/>
   <text width="83" height="20" x="1158" y="500" style="fill:#fff;" font-family="Arial" font-size="16px"> migrations</text>
   <rect width="83" height="20" x="1153" y="506" style="fill:#aea;stroke:black;"/>
   <text width="83" height="20" x="1158" y="520" style="fill:black;" font-family="Arial" font-size="16px">id</text>
   <rect width="83" height="20" x="1153" y="526" style="fill:none;stroke:black;"/>
   <text width="83" height="20" x="1158" y="540" style="fill:black;" font-family="Arial" font-size="16px">migration</text>
   <rect width="83" height="20" x="1153" y="546" style="fill:none;stroke:black;"/>
   <text width="83" height="20" x="1158" y="560" style="fill:black;" font-family="Arial" font-size="16px">batch</text>
   <rect width="123" height="20" x="1133" y="593" style="fill:#007;stroke:black;"/>
   <text width="123" height="20" x="1138" y="607" style="fill:#fff;" font-family="Arial" font-size="16px"> password_resets</text>
   <rect width="123" height="20" x="1133" y="613" style="fill:none;stroke:black;"/>
   <text width="123" height="20" x="1138" y="627" style="fill:black;" font-family="Arial" font-size="16px">email</text>
   <rect width="123" height="20" x="1133" y="633" style="fill:none;stroke:black;"/>
   <text width="123" height="20" x="1138" y="647" style="fill:black;" font-family="Arial" font-size="16px">token</text>
   <rect width="123" height="20" x="1133" y="653" style="fill:none;stroke:black;"/>
   <text width="123" height="20" x="1138" y="667" style="fill:black;" font-family="Arial" font-size="16px">created_at</text>
   <rect width="127" height="20" x="1019" y="454" style="fill:#007;stroke:black;"/>
   <text width="127" height="20" x="1024" y="468" style="fill:#fff;" font-family="Arial" font-size="16px"> users</text>
   <rect width="127" height="20" x="1019" y="474" style="fill:#aea;stroke:black;"/>
   <text width="127" height="20" x="1024" y="488" style="fill:black;" font-family="Arial" font-size="16px">id</text>
   <rect width="127" height="20" x="1019" y="494" style="fill:none;stroke:black;"/>
   <text width="127" height="20" x="1024" y="508" style="fill:black;" font-family="Arial" font-size="16px">name</text>
   <rect width="127" height="20" x="1019" y="514" style="fill:none;stroke:black;"/>
   <text width="127" height="20" x="1024" y="528" style="fill:black;" font-family="Arial" font-size="16px">email</text>
   <rect width="127" height="20" x="1019" y="534" style="fill:none;stroke:black;"/>
   <text width="127" height="20" x="1024" y="548" style="fill:black;" font-family="Arial" font-size="16px">password</text>
   <rect width="127" height="20" x="1019" y="554" style="fill:none;stroke:black;"/>
   <text width="127" height="20" x="1024" y="568" style="fill:black;" font-family="Arial" font-size="16px">remember_token</text>
   <rect width="127" height="20" x="1019" y="574" style="fill:none;stroke:black;"/>
   <text width="127" height="20" x="1024" y="588" style="fill:black;" font-family="Arial" font-size="16px">created_at</text>
   <rect width="127" height="20" x="1019" y="594" style="fill:none;stroke:black;"/>
   <text width="127" height="20" x="1024" y="608" style="fill:black;" font-family="Arial" font-size="16px">updated_at</text>
   <rect width="185" height="20" x="32" y="606" style="fill:#007;stroke:black;"/>
   <text width="185" height="20" x="37" y="620" style="fill:#fff;" font-family="Arial" font-size="16px"> works_crawler_data_en</text>
   <rect width="185" height="20" x="32" y="626" style="fill:#aea;stroke:black;"/>
   <text width="185" height="20" x="37" y="640" style="fill:black;" font-family="Arial" font-size="16px">id</text>
   <rect width="185" height="20" x="32" y="646" style="fill:none;stroke:black;"/>
   <text width="185" height="20" x="37" y="660" style="fill:black;" font-family="Arial" font-size="16px">artwork_name</text>
   <rect width="185" height="20" x="32" y="666" style="fill:none;stroke:black;"/>
   <text width="185" height="20" x="37" y="680" style="fill:black;" font-family="Arial" font-size="16px">artwork_subtitle</text>
   <rect width="185" height="20" x="32" y="686" style="fill:none;stroke:black;"/>
   <text width="185" height="20" x="37" y="700" style="fill:black;" font-family="Arial" font-size="16px">artwork_description</text>
   <rect width="185" height="20" x="32" y="706" style="fill:none;stroke:black;"/>
   <text width="185" height="20" x="37" y="720" style="fill:black;" font-family="Arial" font-size="16px">artwork_edition</text>
   <rect width="185" height="20" x="32" y="726" style="fill:none;stroke:black;"/>
   <text width="185" height="20" x="37" y="740" style="fill:black;" font-family="Arial" font-size="16px">artwork_image</text>
   <rect width="185" height="20" x="32" y="746" style="fill:none;stroke:black;"/>
   <text width="185" height="20" x="37" y="760" style="fill:black;" font-family="Arial" font-size="16px">artwork_image_small</text>
   <rect width="185" height="20" x="32" y="766" style="fill:none;stroke:black;"/>
   <text width="185" height="20" x="37" y="780" style="fill:black;" font-family="Arial" font-size="16px">artwork_date_created</text>
   <rect width="185" height="20" x="32" y="786" style="fill:none;stroke:black;"/>
   <text width="185" height="20" x="37" y="800" style="fill:black;" font-family="Arial" font-size="16px">artwork_date_published</text>
   <rect width="185" height="20" x="32" y="806" style="fill:none;stroke:black;"/>
   <text width="185" height="20" x="37" y="820" style="fill:black;" font-family="Arial" font-size="16px">artwork_date_modified</text>
   <rect width="185" height="20" x="32" y="826" style="fill:none;stroke:black;"/>
   <text width="185" height="20" x="37" y="840" style="fill:black;" font-family="Arial" font-size="16px">artwork_artform</text>
   <rect width="185" height="20" x="32" y="846" style="fill:none;stroke:black;"/>
   <text width="185" height="20" x="37" y="860" style="fill:black;" font-family="Arial" font-size="16px">artwork_surface</text>
   <rect width="185" height="20" x="32" y="866" style="fill:none;stroke:black;"/>
   <text width="185" height="20" x="37" y="880" style="fill:black;" font-family="Arial" font-size="16px">height_value</text>
   <rect width="185" height="20" x="32" y="886" style="fill:none;stroke:black;"/>
   <text width="185" height="20" x="37" y="900" style="fill:black;" font-family="Arial" font-size="16px">height_unit_text</text>
   <rect width="185" height="20" x="32" y="906" style="fill:none;stroke:black;"/>
   <text width="185" height="20" x="37" y="920" style="fill:black;" font-family="Arial" font-size="16px">width_value</text>
   <rect width="185" height="20" x="32" y="926" style="fill:none;stroke:black;"/>
   <text width="185" height="20" x="37" y="940" style="fill:black;" font-family="Arial" font-size="16px">width_unit_text</text>
   <rect width="185" height="20" x="32" y="946" style="fill:none;stroke:black;"/>
   <text width="185" height="20" x="37" y="960" style="fill:black;" font-family="Arial" font-size="16px">work_voice_encyclopedia</text>
   <rect width="185" height="20" x="32" y="966" style="fill:none;stroke:black;"/>
   <text width="185" height="20" x="37" y="980" style="fill:black;" font-family="Arial" font-size="16px">tags</text>
   <rect width="185" height="20" x="32" y="986" style="fill:none;stroke:black;"/>
   <text width="185" height="20" x="37" y="1000" style="fill:black;" font-family="Arial" font-size="16px">videos_html</text>
   <rect width="185" height="20" x="32" y="1006" style="fill:none;stroke:black;"/>
   <text width="185" height="20" x="37" y="1020" style="fill:black;" font-family="Arial" font-size="16px">associated_media</text>
   <rect width="185" height="20" x="32" y="1026" style="fill:none;stroke:black;"/>
   <text width="185" height="20" x="37" y="1040" style="fill:black;" font-family="Arial" font-size="16px">author_born</text>
   <rect width="185" height="20" x="32" y="1046" style="fill:none;stroke:black;"/>
   <text width="185" height="20" x="37" y="1060" style="fill:black;" font-family="Arial" font-size="16px">author_image</text>
   <rect width="185" height="20" x="32" y="1066" style="fill:none;stroke:black;"/>
   <text width="185" height="20" x="37" y="1080" style="fill:black;" font-family="Arial" font-size="16px">author_description</text>
   <rect width="185" height="20" x="32" y="1086" style="fill:none;stroke:black;"/>
   <text width="185" height="20" x="37" y="1100" style="fill:black;" font-family="Arial" font-size="16px">author_url</text>
   <rect width="185" height="20" x="32" y="1106" style="fill:none;stroke:black;"/>
   <text width="185" height="20" x="37" y="1120" style="fill:black;" font-family="Arial" font-size="16px">author_name</text>
   <rect width="185" height="20" x="32" y="1126" style="fill:none;stroke:black;"/>
   <text width="185" height="20" x="37" y="1140" style="fill:black;" font-family="Arial" font-size="16px">audio</text>
   <rect width="185" height="20" x="32" y="1146" style="fill:none;stroke:black;"/>
   <text width="185" height="20" x="37" y="1160" style="fill:black;" font-family="Arial" font-size="16px">created_at</text>
   <rect width="185" height="20" x="32" y="1166" style="fill:none;stroke:black;"/>
   <text width="185" height="20" x="37" y="1180" style="fill:black;" font-family="Arial" font-size="16px">updated_at</text>
   <rect width="185" height="20" x="33" y="631" style="fill:#007;stroke:black;"/>
   <text width="185" height="20" x="38" y="645" style="fill:#fff;" font-family="Arial" font-size="16px"> works_crawler_data_es</text>
   <rect width="185" height="20" x="33" y="651" style="fill:#aea;stroke:black;"/>
   <text width="185" height="20" x="38" y="665" style="fill:black;" font-family="Arial" font-size="16px">id</text>
   <rect width="185" height="20" x="33" y="671" style="fill:none;stroke:black;"/>
   <text width="185" height="20" x="38" y="685" style="fill:black;" font-family="Arial" font-size="16px">artwork_name</text>
   <rect width="185" height="20" x="33" y="691" style="fill:none;stroke:black;"/>
   <text width="185" height="20" x="38" y="705" style="fill:black;" font-family="Arial" font-size="16px">artwork_subtitle</text>
   <rect width="185" height="20" x="33" y="711" style="fill:none;stroke:black;"/>
   <text width="185" height="20" x="38" y="725" style="fill:black;" font-family="Arial" font-size="16px">artwork_description</text>
   <rect width="185" height="20" x="33" y="731" style="fill:none;stroke:black;"/>
   <text width="185" height="20" x="38" y="745" style="fill:black;" font-family="Arial" font-size="16px">artwork_edition</text>
   <rect width="185" height="20" x="33" y="751" style="fill:none;stroke:black;"/>
   <text width="185" height="20" x="38" y="765" style="fill:black;" font-family="Arial" font-size="16px">artwork_image</text>
   <rect width="185" height="20" x="33" y="771" style="fill:none;stroke:black;"/>
   <text width="185" height="20" x="38" y="785" style="fill:black;" font-family="Arial" font-size="16px">artwork_image_small</text>
   <rect width="185" height="20" x="33" y="791" style="fill:none;stroke:black;"/>
   <text width="185" height="20" x="38" y="805" style="fill:black;" font-family="Arial" font-size="16px">artwork_date_created</text>
   <rect width="185" height="20" x="33" y="811" style="fill:none;stroke:black;"/>
   <text width="185" height="20" x="38" y="825" style="fill:black;" font-family="Arial" font-size="16px">artwork_date_published</text>
   <rect width="185" height="20" x="33" y="831" style="fill:none;stroke:black;"/>
   <text width="185" height="20" x="38" y="845" style="fill:black;" font-family="Arial" font-size="16px">artwork_date_modified</text>
   <rect width="185" height="20" x="33" y="851" style="fill:none;stroke:black;"/>
   <text width="185" height="20" x="38" y="865" style="fill:black;" font-family="Arial" font-size="16px">artwork_artform</text>
   <rect width="185" height="20" x="33" y="871" style="fill:none;stroke:black;"/>
   <text width="185" height="20" x="38" y="885" style="fill:black;" font-family="Arial" font-size="16px">artwork_surface</text>
   <rect width="185" height="20" x="33" y="891" style="fill:none;stroke:black;"/>
   <text width="185" height="20" x="38" y="905" style="fill:black;" font-family="Arial" font-size="16px">height_value</text>
   <rect width="185" height="20" x="33" y="911" style="fill:none;stroke:black;"/>
   <text width="185" height="20" x="38" y="925" style="fill:black;" font-family="Arial" font-size="16px">height_unit_text</text>
   <rect width="185" height="20" x="33" y="931" style="fill:none;stroke:black;"/>
   <text width="185" height="20" x="38" y="945" style="fill:black;" font-family="Arial" font-size="16px">width_value</text>
   <rect width="185" height="20" x="33" y="951" style="fill:none;stroke:black;"/>
   <text width="185" height="20" x="38" y="965" style="fill:black;" font-family="Arial" font-size="16px">width_unit_text</text>
   <rect width="185" height="20" x="33" y="971" style="fill:none;stroke:black;"/>
   <text width="185" height="20" x="38" y="985" style="fill:black;" font-family="Arial" font-size="16px">work_voice_encyclopedia</text>
   <rect width="185" height="20" x="33" y="991" style="fill:none;stroke:black;"/>
   <text width="185" height="20" x="38" y="1005" style="fill:black;" font-family="Arial" font-size="16px">tags</text>
   <rect width="185" height="20" x="33" y="1011" style="fill:none;stroke:black;"/>
   <text width="185" height="20" x="38" y="1025" style="fill:black;" font-family="Arial" font-size="16px">videos_html</text>
   <rect width="185" height="20" x="33" y="1031" style="fill:none;stroke:black;"/>
   <text width="185" height="20" x="38" y="1045" style="fill:black;" font-family="Arial" font-size="16px">associated_media</text>
   <rect width="185" height="20" x="33" y="1051" style="fill:none;stroke:black;"/>
   <text width="185" height="20" x="38" y="1065" style="fill:black;" font-family="Arial" font-size="16px">author_born</text>
   <rect width="185" height="20" x="33" y="1071" style="fill:none;stroke:black;"/>
   <text width="185" height="20" x="38" y="1085" style="fill:black;" font-family="Arial" font-size="16px">author_image</text>
   <rect width="185" height="20" x="33" y="1091" style="fill:none;stroke:black;"/>
   <text width="185" height="20" x="38" y="1105" style="fill:black;" font-family="Arial" font-size="16px">author_description</text>
   <rect width="185" height="20" x="33" y="1111" style="fill:none;stroke:black;"/>
   <text width="185" height="20" x="38" y="1125" style="fill:black;" font-family="Arial" font-size="16px">author_url</text>
   <rect width="185" height="20" x="33" y="1131" style="fill:none;stroke:black;"/>
   <text width="185" height="20" x="38" y="1145" style="fill:black;" font-family="Arial" font-size="16px">author_name</text>
   <rect width="185" height="20" x="33" y="1151" style="fill:none;stroke:black;"/>
   <text width="185" height="20" x="38" y="1165" style="fill:black;" font-family="Arial" font-size="16px">audio</text>
   <rect width="185" height="20" x="33" y="1171" style="fill:none;stroke:black;"/>
   <text width="185" height="20" x="38" y="1185" style="fill:black;" font-family="Arial" font-size="16px">created_at</text>
   <rect width="185" height="20" x="33" y="1191" style="fill:none;stroke:black;"/>
   <text width="185" height="20" x="38" y="1205" style="fill:black;" font-family="Arial" font-size="16px">updated_at</text>
   <rect width="107" height="20" x="45" y="438" style="fill:#007;stroke:black;"/>
   <text width="107" height="20" x="50" y="452" style="fill:#fff;" font-family="Arial" font-size="16px"> works_urls_list</text>
   <rect width="107" height="20" x="45" y="458" style="fill:#aea;stroke:black;"/>
   <text width="107" height="20" x="50" y="472" style="fill:black;" font-family="Arial" font-size="16px">id</text>
   <rect width="107" height="20" x="45" y="478" style="fill:none;stroke:black;"/>
   <text width="107" height="20" x="50" y="492" style="fill:black;" font-family="Arial" font-size="16px">name</text>
   <rect width="107" height="20" x="45" y="498" style="fill:none;stroke:black;"/>
   <text width="107" height="20" x="50" y="512" style="fill:black;" font-family="Arial" font-size="16px">url</text>
   <rect width="107" height="20" x="45" y="518" style="fill:none;stroke:black;"/>
   <text width="107" height="20" x="50" y="532" style="fill:black;" font-family="Arial" font-size="16px">url_en</text>
   <rect width="107" height="20" x="45" y="538" style="fill:none;stroke:black;"/>
   <text width="107" height="20" x="50" y="552" style="fill:black;" font-family="Arial" font-size="16px">created_at</text>
   <rect width="107" height="20" x="45" y="558" style="fill:none;stroke:black;"/>
   <text width="107" height="20" x="50" y="572" style="fill:black;" font-family="Arial" font-size="16px">updated_at</text>
</svg>
